<svg xmlns="http://www.w3.org/2000/svg" width="64" height="64" viewBox="0 0 64 64" role="img">
  <title>RL Lab</title>
  <defs>
    <linearGradient id="rlTile" x1="0" y1="0" x2="0" y2="1">
      <stop offset="0" stop-color="#322A63"/>
      <stop offset="1" stop-color="#16122C"/>
    </linearGradient>
  </defs>
  <rect width="64" height="64" rx="14" fill="url(#rlTile)"/>
  <path d="M20.3,24.4 A14,14 0 0 1 43.7,24.4" fill="none" stroke="#FFFFFF" stroke-width="3.2" stroke-linecap="round"/>
  <path d="M43.7,39.6 A14,14 0 0 1 20.3,39.6" fill="none" stroke="#FFFFFF" stroke-width="3.2" stroke-linecap="round"/>
  <path d="M44.6,27.5 L46,23.7 L41.3,25.1 Z" fill="#F0A93A"/>
  <path d="M19.4,36.5 L18,40.3 L22.7,38.9 Z" fill="#F0A93A"/>
  <circle cx="32" cy="32" r="3.6" fill="#F0A93A"/>
  <circle cx="30.95" cy="30.83" r="1.3" fill="#FFE0A6"/>
  <path d="M46.9,15.1 L48,18 L51,19.2 L48,20.3 L46.9,23.25 L45.7,20.3 L42.8,19.2 L45.7,18 Z" fill="#FAC775"/>
</svg>
